<?xml version="1.0" standalone="no"?>
<!DOCTYPE svg PUBLIC "-//W3C//DTD SVG 20010904//EN"
 "http://www.w3.org/TR/2001/REC-SVG-20010904/DTD/svg10.dtd">
<svg version="1.0" xmlns="http://www.w3.org/2000/svg"
 width="512.000000pt" height="512.000000pt" viewBox="0 0 512.000000 512.000000"
 preserveAspectRatio="xMidYMid meet">

<g transform="translate(0.000000,512.000000) scale(0.100000,-0.100000)"
fill="#000000" stroke="none">
<path d="M2315 5109 c-800 -83 -1501 -518 -1927 -1196 -487 -774 -516 -1777
-75 -2578 317 -577 848 -1015 1472 -1214 263 -84 474 -116 775 -116 236 0 333
10 532 51 879 183 1616 843 1897 1699 93 282 126 493 126 805 0 301 -32 513
-116 775 -124 390 -330 728 -622 1024 -399 404 -893 653 -1462 737 -123 18
-478 26 -600 13z m465 -160 c715 -65 1374 -458 1775 -1059 204 -306 324 -623
387 -1025 17 -109 17 -495 -1 -610 -81 -546 -314 -1018 -686 -1390 -505 -505
-1207 -760 -1915 -694 -548 50 -1074 297 -1469 689 -571 566 -820 1376 -665
2160 188 956 938 1706 1894 1894 225 44 453 56 680 35z"/>
<path d="M2233 4740 c-478 -74 -887 -282 -1229 -624 -426 -426 -644 -953 -644
-1556 0 -603 218 -1130 644 -1556 327 -327 721 -533 1181 -617 165 -30 574
-32 735 -3 481 86 892 302 1223 645 308 319 510 713 589 1151 30 166 36 492
13 667 -63 474 -269 899 -602 1244 -331 342 -730 554 -1218 645 -143 26 -534
29 -692 4z m1637 -1332 l0 -83 -655 -422 -655 -423 -640 410 c-352 226 -647
413 -655 416 -12 5 -15 25 -15 95 l0 89 1310 0 1310 0 0 -82z m-2191 -553
c164 -105 258 -171 254 -179 -7 -12 -582 -769 -645 -849 l-38 -49 0 676 0 676
84 -54 c46 -30 201 -129 345 -221z m2191 -397 c0 -370 -4 -668 -8 -663 -19 21
-670 881 -673 889 -4 8 655 443 674 445 4 1 7 -301 7 -671z m-1537 -22 l228
-146 241 156 c198 128 243 153 254 142 28 -30 725 -951 721 -954 -2 -2 -550
-3 -1219 -2 l-1215 3 366 481 c284 374 369 479 381 473 9 -4 118 -73 243 -153z"/>
</g>
</svg>
