<?xml version="1.0" standalone="no"?>
<!DOCTYPE svg PUBLIC "-//W3C//DTD SVG 20010904//EN"
 "http://www.w3.org/TR/2001/REC-SVG-20010904/DTD/svg10.dtd">
<svg version="1.0" xmlns="http://www.w3.org/2000/svg"
 width="512.000000pt" height="512.000000pt" viewBox="0 0 512.000000 512.000000"
 preserveAspectRatio="xMidYMid meet">

<g transform="translate(0.000000,512.000000) scale(0.100000,-0.100000)"
fill="#000000" stroke="none">
<path d="M2315 5109 c-800 -83 -1501 -518 -1927 -1196 -487 -774 -516 -1777
-75 -2578 200 -364 487 -676 841 -913 238 -159 600 -311 876 -366 214 -43 295
-51 530 -51 236 0 333 10 532 51 879 183 1616 843 1897 1699 93 282 126 493
126 805 0 301 -32 513 -116 775 -124 390 -330 728 -622 1024 -399 404 -893
653 -1462 737 -123 18 -478 26 -600 13z m451 -350 c694 -67 1319 -458 1680
-1050 83 -135 159 -302 210 -455 345 -1050 -130 -2184 -1121 -2674 -765 -379
-1679 -279 -2359 258 -104 81 -290 273 -373 383 -666 887 -587 2108 187 2890
63 63 147 141 186 171 454 359 1031 532 1590 477z"/>
<path d="M2430 4409 c-641 -38 -1243 -440 -1530 -1024 -147 -299 -209 -609
-189 -949 38 -645 432 -1240 1014 -1531 306 -152 614 -214 964 -194 474 28
946 261 1262 622 618 707 616 1753 -3 2457 -379 431 -926 654 -1518 619z m670
-888 l0 -200 -150 -3 c-148 -3 -150 -3 -177 -31 -28 -27 -28 -29 -31 -177 l-3
-150 180 0 c145 0 181 -3 181 -13 0 -8 -9 -94 -20 -193 -11 -98 -20 -182 -20
-186 0 -5 -72 -8 -160 -8 l-160 0 0 -580 0 -580 -240 0 -240 0 0 580 0 580
-120 0 -120 0 0 200 0 200 119 0 119 0 4 203 c4 172 8 212 26 268 49 150 160
244 327 279 22 4 140 8 263 9 l222 1 0 -199z"/>
</g>
</svg>
