<?xml version="1.0" standalone="no"?>
<!DOCTYPE svg PUBLIC "-//W3C//DTD SVG 20010904//EN"
 "http://www.w3.org/TR/2001/REC-SVG-20010904/DTD/svg10.dtd">
<svg version="1.0" xmlns="http://www.w3.org/2000/svg"
 width="512.000000pt" height="512.000000pt" viewBox="0 0 512.000000 512.000000"
 preserveAspectRatio="xMidYMid meet">

<g transform="translate(0.000000,512.000000) scale(0.100000,-0.100000)"
fill="#000000" stroke="none">
<path d="M2325 5109 c-486 -50 -924 -220 -1315 -512 -122 -92 -395 -365 -487
-487 -264 -355 -428 -742 -495 -1175 -29 -191 -31 -530 -4 -720 40 -279 120
-539 242 -784 139 -280 261 -449 489 -676 229 -230 416 -364 690 -496 245
-118 473 -189 740 -231 201 -31 550 -31 750 0 433 68 821 231 1174 495 124 92
396 364 488 488 214 286 365 604 448 939 53 216 70 364 70 610 0 413 -79 758
-255 1118 -126 259 -260 449 -465 660 -400 414 -892 668 -1458 753 -153 23
-473 33 -612 18z m430 -399 c676 -63 1268 -428 1639 -1010 26 -41 74 -129 106
-195 225 -463 278 -984 150 -1484 -113 -442 -371 -844 -732 -1139 -524 -428
-1233 -582 -1897 -412 -612 156 -1142 594 -1412 1165 -160 338 -229 715 -201
1082 34 428 178 810 435 1152 83 110 260 292 363 373 446 353 998 519 1549
468z"/>
<path d="M2360 4629 c-501 -51 -950 -271 -1301 -636 -790 -824 -765 -2129 57
-2924 673 -651 1700 -774 2497 -299 545 324 906 860 1004 1491 24 155 24 443
0 598 -98 631 -458 1166 -1005 1492 -366 218 -828 321 -1252 278z m1207 -908
c65 -29 134 -101 159 -166 18 -48 19 -88 19 -995 0 -907 -1 -947 -19 -995 -25
-65 -94 -137 -159 -166 l-52 -24 -955 0 -955 0 -52 24 c-65 29 -134 101 -159
166 -18 48 -19 88 -19 995 0 905 1 947 19 994 36 94 127 169 225 186 25 4 462
7 971 6 l925 -1 52 -24z"/>
<path d="M3042 3438 c-35 -17 -44 -69 -40 -235 4 -206 -11 -193 222 -193 100
0 186 4 192 8 28 18 34 56 34 217 0 163 0 166 -25 190 -24 25 -27 25 -192 24
-99 0 -177 -5 -191 -11z"/>
<path d="M2425 3006 c-204 -65 -335 -237 -335 -440 0 -203 122 -369 321 -437
122 -41 287 -23 401 44 107 62 199 201 219 329 33 213 -109 433 -322 499 -71
22 -221 25 -284 5z"/>
<path d="M1672 2241 c2 -427 6 -543 16 -553 19 -19 1725 -19 1744 0 10 10 14
126 16 552 1 297 -1 540 -5 540 -33 -2 -168 -38 -168 -46 0 -5 7 -46 14 -92
24 -146 -2 -291 -77 -437 -50 -96 -191 -237 -287 -287 -96 -50 -185 -77 -283
-87 -470 -48 -861 332 -809 786 15 137 19 126 -39 139 -29 6 -68 14 -88 18
l-37 7 3 -540z"/>
</g>
</svg>
