<?xml version="1.0" standalone="no"?>
<!DOCTYPE svg PUBLIC "-//W3C//DTD SVG 20010904//EN"
 "http://www.w3.org/TR/2001/REC-SVG-20010904/DTD/svg10.dtd">
<svg version="1.0" xmlns="http://www.w3.org/2000/svg"
 width="512.000000pt" height="512.000000pt" viewBox="0 0 512.000000 512.000000"
 preserveAspectRatio="xMidYMid meet">

<g transform="translate(0.000000,512.000000) scale(0.100000,-0.100000)"
fill="#000000" stroke="none">
<path d="M2375 5114 c-538 -55 -959 -215 -1365 -517 -123 -93 -395 -365 -489
-490 -263 -352 -425 -738 -493 -1172 -31 -201 -31 -549 0 -750 43 -277 118
-513 238 -754 139 -280 261 -449 489 -676 229 -230 416 -364 690 -496 245
-118 473 -189 740 -231 201 -31 550 -31 750 0 433 68 821 231 1174 495 124 92
396 364 488 488 214 286 365 604 448 939 53 216 70 364 70 610 0 413 -79 758
-254 1117 -127 259 -262 451 -466 661 -400 414 -892 668 -1458 753 -126 19
-465 33 -562 23z m380 -404 c269 -25 515 -95 760 -215 568 -279 985 -797 1140
-1414 46 -185 59 -302 59 -521 0 -219 -13 -336 -59 -521 -115 -455 -371 -857
-737 -1157 -524 -427 -1233 -582 -1897 -412 -427 109 -835 366 -1112 700 -368
444 -544 990 -501 1547 34 428 178 810 435 1152 83 110 260 292 363 373 446
353 998 519 1549 468z"/>
<path d="M2360 4629 c-501 -51 -950 -271 -1301 -636 -790 -824 -765 -2129 57
-2924 673 -651 1700 -774 2497 -299 544 324 907 862 1003 1491 24 155 24 443
0 598 -97 630 -457 1166 -1004 1492 -366 218 -828 321 -1252 278z m467 -588
c258 -53 472 -170 663 -361 117 -117 197 -229 264 -371 279 -590 78 -1302
-469 -1664 -107 -71 -186 -109 -309 -150 -307 -103 -700 -81 -966 55 -21 11
-47 20 -57 19 -10 0 -173 -71 -363 -158 -190 -87 -346 -158 -347 -157 -1 1 42
179 96 397 l98 396 -58 119 c-399 817 112 1770 1016 1893 106 15 315 6 432
-18z"/>
<path d="M2410 3794 c-322 -59 -572 -220 -737 -477 -233 -359 -218 -856 36
-1191 l52 -68 -69 -177 c-39 -97 -68 -177 -67 -179 2 -2 67 38 146 89 79 50
149 94 156 96 6 3 46 -16 88 -42 94 -57 195 -98 312 -127 125 -31 341 -31 465
0 255 63 458 194 610 396 155 205 226 455 206 726 -32 439 -345 811 -783 930
-62 17 -115 23 -235 25 -85 2 -166 1 -180 -1z m-158 -466 c17 -13 128 -292
128 -321 0 -8 -25 -46 -55 -84 -62 -76 -63 -84 -18 -162 36 -63 215 -238 285
-280 72 -42 135 -64 163 -57 12 3 50 39 84 81 39 48 68 75 81 75 12 0 81 -28
155 -61 150 -69 155 -75 155 -176 0 -53 -2 -56 -58 -113 -32 -32 -83 -70 -113
-86 -47 -24 -65 -28 -139 -28 -137 0 -274 51 -449 168 -304 203 -545 556 -529
777 7 90 74 210 148 262 29 20 138 23 162 5z"/>
</g>
</svg>
